<?xml version="1.0" encoding="utf-8"?>
<!-- Generator: Adobe Illustrator 23.0.1, SVG Export Plug-In . SVG Version: 6.00 Build 0)  -->
<svg version="1.1" id="Layer_1" focusable="false" xmlns="http://www.w3.org/2000/svg" xmlns:xlink="http://www.w3.org/1999/xlink"
	 x="0px" y="0px" viewBox="0 0 512 512" style="enable-background:new 0 0 512 512;" xml:space="preserve">
<style type="text/css">
	.st0{fill:#FFFFFF;}
</style>
<path class="st0" d="M74,208H64c-8.8,0-16,7.2-16,16v16c0,8.8,7.2,16,16,16h15.9c-0.1,43.2-5.5,86.1-15.9,128h128
	c-10.4-41.9-15.8-84.8-15.9-128H192c8.8,0,16-7.2,16-16v-16c0-8.8-7.2-16-16-16h-10l33.9-90.4c3.1-8.3-1.1-17.5-9.4-20.6
	c-1.8-0.7-3.7-1-5.6-1H144V64h24c4.4,0,8-3.6,8-8V40c0-4.4-3.6-8-8-8h-24V8c0-4.4-3.6-8-8-8h-16c-4.4,0-8,3.6-8,8v24H88
	c-4.4,0-8,3.6-8,8v16c0,4.4,3.6,8,8,8h24v32H55.1c-8.8,0-16,7.1-16,16c0,1.9,0.3,3.8,1,5.6L74,208z M247.2,459.6L224,448v-16
	c0-8.8-7.2-16-16-16H48c-8.8,0-16,7.2-16,16v16L8.9,459.6c-5.4,2.7-8.8,8.2-8.9,14.3V496c0,8.8,7.2,16,16,16h224c8.8,0,16-7.2,16-16
	v-22.1C256,467.8,252.6,462.3,247.2,459.6z M339.9,301.8l-3.3,82.2h126.7l-3.3-82.2l24.6-20.8c7.2-6.1,11.3-15,11.3-24.5V198
	c0-3.3-2.7-6-6-6h-26.4c-3.3,0-6,2.7-6,6v26h-24.7v-26c0-3.3-2.7-6-6-6h-53.8c-3.3,0-6,2.7-6,6v26h-24.7v-26c0-3.3-2.7-6-6-6H310
	c-3.3,0-6,2.7-6,6v58.6c0,9.4,4.2,18.3,11.4,24.4L339.9,301.8z M384,304c0-8.8,7.2-16,16-16s16,7.2,16,16v32h-32V304z M503.2,459.6
	L480,448v-16c0-8.8-7.2-16-16-16H336c-8.8,0-16,7.2-16,16v16l-23.1,11.6c-5.4,2.7-8.8,8.2-8.9,14.3V496c0,8.8,7.2,16,16,16h192
	c8.8,0,16-7.2,16-16v-22.1C512,467.8,508.6,462.3,503.2,459.6z"/>
</svg>
