<?xml version="1.0" encoding="utf-8"?>
<!-- Generator: Adobe Illustrator 23.0.1, SVG Export Plug-In . SVG Version: 6.00 Build 0)  -->
<svg version="1.1" id="Layer_1" xmlns="http://www.w3.org/2000/svg" xmlns:xlink="http://www.w3.org/1999/xlink" x="0px" y="0px"
	 viewBox="0 0 1222.8 1372.1" style="enable-background:new 0 0 1222.8 1372.1;" xml:space="preserve">
<style type="text/css">
	.st0{fill:#FFFFFF;stroke:#000000;stroke-miterlimit:10;}
</style>
<title>Cricket</title>
<path class="st0" d="M650,11.9c0.2,8-0.4,15.3-2.3,20.4c-9.1-3.7-32-4-38.5,2.3h79.2c4,10.9,2.3,30.6,2.3,45.2v393.7
	c-5.6,2.4-11,6.5-15.8,9h-4.5v2.3l-9,2.3v2.3c-5.3,4.3-8.3,9.2-15.8,11.3c-3.4,12.8-22.6,22.4-29.4,33.9h-2.3v-2.3
	c-4.8-5.5-2.3-24.3-2.3-33.9V39c-23.5,2.3-62.7,5.8-85.9,0h-9v2.3c-8.8,2.3-18.9-1.2-24.9-2.3c-1.6-6.3-0.6-5.1-6.8-6.8
	c-4.6-3.8-13.4,0-22.6,0c-22,0.1-41.9-1.7-58.8,0V39h-2.3c-4.9,4.3-20.6,2.3-29.4,2.3h-81.5V39h-6.8c0,277.5,0,559.4,0,830.3
	l-22.6,20.4c-4.5,6.2-2.6,8.9-11.3,11.3v4.6c-6.3,1.6-5.1,0.6-6.8,6.8h-4.5c-1.6,7-4.4,9.6-11.3,11.3v4.5h-4.5
	c-1.6,6.3-0.6,5.1-6.8,6.8v4.5c-9.2,2.6-2.4,2.1-6.8,6.8h-2.3V944c-5.1-5.9-2.3-48.8-2.3-61.1V36.8c17.7-6.5,58.7-2.4,81.4-2.3v-2.3
	L258.8,30v2.3h-11.3c-1.9-5-2.3-12.3-2.3-20.4h38.5l6.8-11.3h110.8l6.8,11.3h79.2c2.9-6.9,4.2-10.3,13.6-11.3v2.3h2.3V0.6h101.8
	l6.8,11.3H650z"/>
<path class="st0" d="M485,668h-4.5v4.5c-6.2,1.6-5.1,0.6-6.8,6.8h-4.5v4.5h-4.5c-2.5,9.4-10,12.2-15.8,18.1l-36.2,38.5h-2.3v-2.3
	c-5.5-6.3-2.3-29.9-2.3-40.7V75.2c0-12.7,1.3-29.3-2.3-38.5h2.3c3.8-3.4,13.2-2.3,20.4-2.3c18.8,0,46.3-3.3,61.1,2.3
	c-5.2,14.3-2.3,40.5-2.3,58.8v368.8c0,30.2,1.9,66.4-2.3,92.8c-0.7,4.6,2.3,4.5,2.3,4.5c1.6,7.4-1.3,16.6-2.3,20.4
	c0.8,7.5,1.5,15.1,2.3,22.6C487.5,626,486.6,649.9,485,668z"/>
<path class="st0" d="M1165.7,138.6v4.5h4.5c1.6,6.3,0.6,5.1,6.8,6.8v4.5h4.5c1.6,6.3,0.6,5.1,6.8,6.8v4.5c6.3,1.6,5.1,0.6,6.8,6.8
	c12.4,3.2,17,16.6,27.1,22.6c-1.3,4.6,0.3,2-2.3,4.5v4.5h-4.5v4.5c-6.2,1.6-5.1,0.6-6.8,6.8h-4.5v4.5h-4.5
	c-1.9,7.9-21.5,27.4-29.4,29.4c-1.8,7.6-15,20.7-22.6,22.6c-3.1,11.3-23.5,25.8-31.7,33.9l-81.4,83.7c-8.5,8.5-30.8,24.6-33.9,36.2
	H996v4.5c-6.2,1.6-5.1,0.6-6.8,6.8h-4.5v4.5c-6.3,1.6-5.1,0.6-6.8,6.8h-4.5v4.5c-6.3,1.6-5.1,0.6-6.8,6.8h-4.5v4.5
	c-6.3,1.6-5.1,0.6-6.8,6.8h-4.5v4.5c-6.2,1.6-5.1,0.6-6.8,6.8h-4.6v4.5H935c-6.8,14.5-20.9,23.2-31.7,33.9v2.3l-45.2,43
	c-6.7,6.7-11.9,15.4-20.3,20.4l6.8,11.3l4.5,2.3v4.5l6.8,4.5v4.5l4.5,2.3v6.8l4.5,2.3v13.6h2.3v18.1h-2.3v13.6h-2.3v4.5h-2.3
	c-0.8,3-1.5,6-2.3,9l-4.5,2.3c-14.4,21.3-34.2,36.5-52,54.3L763.1,781l-22.6,20.4c-5.3,6.8-10.6,13.6-15.8,20.4h-4.5l-2.3,4.5
	L702,839.9v4.5h-2.2l-4.5,6.8h-4.5l-11.3,13.6L675,867v4.5h-2.3l-6.8,9l-15.8,13.6L623,923.5c-6.4,6.4-15.3,10.3-18.1,20.4
	c-6.3,1.6-5.1,0.6-6.8,6.8h-4.6c-3.7,6.3-9.1,7.7-11.3,15.8c-6.2,1.6-5.1,0.6-6.8,6.8h-4.5c-3.7,6.3-9.1,7.7-11.3,15.8H555
	c-4.2,7.1-11.1,9.1-13.6,18.1H537c-1.6,6.3-0.6,5.1-6.8,6.8v4.5h-4.5c-1.6,7-4.4,9.6-11.3,11.3c-1.6,6.3-0.6,5.1-6.8,6.8v4.5H503
	v4.5c-6.3,1.6-5.1,0.6-6.8,6.8h-4.5c-1.6,6.2-0.6,5.1-6.8,6.8v4.5h-4.5v4.5h-4.5c-3.1,11.5-15.2,17.5-22.6,24.9l-38.4,40.7
	l-18.1,15.8c-9-1-15.6-4.7-22.6-6.8c-15.1-4.5-56.3,3.1-65.6,6.8v2.3H304v2.3h-6.8c-0.8,1.5-1.5,3-2.3,4.5l-9,2.3l-2.3,4.5h-4.5v2.3
	c-3.4,2.7-4,3.1-9,4.5v4.5h-4.5c-2.7,4.8-5.1,4.9-6.8,11.3h-4.5l-2.3,6.8h-2.3c-0.8,2.3-1.5,4.5-2.3,6.8l-4.5,2.3v6.8l-4.5,2.3v6.8
	h-2.3c-0.8,3-1.5,6-2.3,9h-2.3v11.3h-2.2v4.5h-2.3v47.5h2.3l4.5,24.9l-47.5,45.4l-11.3,2.3v2.3h-4.5v2.3l-27.1,2.2v-2.3h-13.6v-2.3
	h-4.5v-2.3l-11.3-2.2v-2.3c-4.1-3.2-5.4-5.2-11.3-6.8v-4.5c-7-1.6-9.6-4.4-11.3-11.3c-6.3-1.6-5.1-0.6-6.8-6.8
	c-7.4-1.9-36.5-31-38.4-38.5c-9.4-2.5-12.2-10-18.1-15.8l-13.6-11.3v-4.5c-2.3-1.5-4.5-3-6.8-4.5v-6.8l-4.5-2.3v-6.8
	c-3.1-8.3-4.2-37,0-45.3l4.5-2.3v-6.8l4.5-2.3v-4.5l67.9-65.6l126.6-131.2l49.7-49.8c7.5-7.5,19.5-13.4,22.6-24.9
	c6.2-1.6,5.1-0.6,6.8-6.8h4.6v-4.5h4.5c2.7-4.8,5.1-4.9,6.8-11.3h4.5c2.8-4.8,5.1-4.9,6.8-11.3h4.5c2.7-4.8,5.1-4.9,6.8-11.3h4.5
	V858c6.2-1.6,5.1-0.6,6.8-6.8h4.5c1.6-6.3,0.6-5.1,6.8-6.8c1.7-7.3,8.6-14.1,15.8-15.8c1.6-6.3,0.6-5.1,6.8-6.8
	c1.6-7,4.4-9.6,11.3-11.3V806h4.5c1.6-6.3,0.6-5.1,6.8-6.8v-4.5h4.5c3.1-11.3,23.5-25.8,31.7-33.9l81.4-83.7
	c8.5-8.5,30.8-24.7,33.9-36.2h4.5c1.6-6.3,0.6-5.1,6.8-6.8v-4.5h4.5c1.6-6.3,0.6-5.1,6.8-6.8c1.6-7,4.4-9.6,11.3-11.3v-4.5h4.5
	c1.6-6.3,0.6-5.1,6.8-6.8v-4.5h4.5c1.6-6.3,0.6-5.1,6.8-6.8c3-11.1,17.4-19.7,24.9-27.2c22.2-22.2,43.2-53.6,76.9-63.3
	c19.7-5.7,47.7,7.3,56.5,13.6c3.2,2.3,9.8,15.3,15.8,13.6v-2.3c11.8-3.2,31.7-29.5,40.7-38.5l20.3-18.1l67.8-70.1
	c8.7-8.7,33-26.8,36.2-38.5h4.5c1.6-7,4.4-9.6,11.3-11.3c1.6-6.3,0.6-5.1,6.8-6.8c3.2-11.6,19.2-21.5,27.1-29.4l65.6-67.9
	c7.9-7.9,24-17.8,27.1-29.4h4.5c4.2-7.1,11.1-9.1,13.6-18.1h4.5v-4.6c6.2-1.6,5.1-0.6,6.8-6.8h4.5c2.7-4.8,5.1-4.9,6.8-11.3h4.5
	v-4.5h4.5c2.7-4.8,5.1-4.9,6.8-11.3c6.3-1.6,5.1-0.6,6.8-6.8h4.5C1151.7,141.4,1155.4,138.8,1165.7,138.6z"/>
<path class="st0" d="M690.8,1136.3h-79.2V971.1l6.8-4.5v-4.5l31.7-29.4c5.9-5.9,8.7-13.3,18.1-15.8c2.3-8.8,5.2-6.7,11.3-11.3
	l6.8-11.3h2.3v2.3c5.2,6,2.3,50.8,2.3,63.3L690.8,1136.3z"/>
<path class="st0" d="M460.1,1127.2c1.6-7,4.4-9.6,11.3-11.3v-4.5h4.5c1.4-5.9,2.4-6.4,6.8-9v-2.3h2.3v2.3c4.5,4.9,2.5,22.7,2.3,31.7
	c-8.6,3.2-24.1,2.4-36.2,2.3v-2.3c2.6-2.6,0.9,0,2.3-4.5L460.1,1127.2z"/>
<path class="st0" d="M423.9,1195.1c1.6,6.3,0.6,5.1,6.8,6.8l2.3,6.8h2.3c0.8,2.3,1.5,4.5,2.3,6.8l4.5,2.3v6.8l4.5,2.3v6.7h2.3v4.5
	h2.3v6.8h2.3v29.4c-0.7,9.1-1.5,18.1-2.3,27.2h-2.3v4.5h-2.3v9l-4.5,2.3c-0.8,3-1.5,6-2.3,9l-4.5,2.3v4.5l-11.3,9l-6.8,9.1h-4.5
	l-4.5,6.8l-11.3,2.3l-2.3,4.5h-9v2.3H381v2.3l-34,2.3v-2.3h-20.4v-2.3h-4.5v-2.3h-9v-2.2h-4.5c-0.8-1.5-1.5-3-2.3-4.5
	c-4.8-3.3-10.2-5.6-15.8-6.8v-4.5c-13.5-3.5-18.8-18-24.9-29.4h-2.3v-4.5h-2.3v-6.8l-4.5-2.3v-11.3c-1.9-6.1-7.4-21.9-4.5-31.7h2.3
	v-11.3h2.2v-11.3h2.3c0.8-3.8,1.5-7.5,2.3-11.3h2.3v-4.5h2.3c2-3.1,1.5-4,2.3-9h4.5c2-7.8,4.7-5.8,6.8-13.6h4.5v-4.5
	c5.9-1.6,7.3-3.6,11.3-6.8v-2.3l9-2.3l2.3-4.5h6.8v-2.3l9-2.3v-2.3h13.6v-2.3l27.1-2.3v2.3h9v2.3h13.7v2.3l9,2.3v2.3h6.8l2.3,4.5
	l9,2.3v2.3C416.6,1191.6,418,1193.5,423.9,1195.1z"/>
</svg>
